#N canvas 200 6 1920 976 12;
#X obj 131 197 receive fromGUI;
#X obj 131 221 list trim;
#X obj 131 298 vsl 19 162 0 1 0 0 empty empty empty 0 -9 0 12 #fcfcfc #000000 #000000 0 1;
#X obj 131 671 dac~;
#X obj 160 333 unpack 0 1;
#X obj 160 357 select 0;
#X obj 160 381 + 60;
#X obj 160 468 +;
#X obj 160 528 mtof;
#X obj 160 552 osc~;
#X obj 160 596 *~;
#X obj 240 381 + 62;
#X msg 199 502 1 10;
#X obj 244 551 line~;
#X obj 131 633 *~;
#X obj 244 502 delay 120;
#X obj 319 333 unpack 0 1;
#X obj 319 357 select 0;
#X obj 399 333 unpack 0 1;
#X obj 399 357 select 0;
#X obj 477 332 unpack 0 1;
#X obj 477 356 select 0;
#X obj 557 332 unpack 0 1;
#X obj 557 356 select 0;
#X obj 636 332 unpack 0 1;
#X obj 636 356 select 0;
#X obj 716 332 unpack 0 1;
#X obj 716 356 select 0;
#X obj 319 381 + 64;
#X obj 399 381 + 65;
#X obj 477 380 + 67;
#X obj 557 380 + 69;
#X obj 636 380 + 71;
#X obj 716 380 + 72;
#X text 158 314 C;
#X text 239 314 D;
#X text 317 314 E;
#X text 397 312 F;
#X text 473 311 G;
#X text 555 311 A;
#X text 636 310 B;
#X obj 795 329 unpack 0 1;
#X obj 795 353 select 0;
#X obj 875 329 unpack 0 1;
#X obj 875 353 select 0;
#X obj 954 329 unpack 0 1;
#X obj 954 353 select 0;
#X obj 1034 329 unpack 0 1;
#X obj 1034 353 select 0;
#X obj 1112 328 unpack 0 1;
#X obj 1112 352 select 0;
#X obj 795 377 + 61;
#X obj 875 377 + 63;
#X obj 954 377 + 66;
#X obj 1034 377 + 68;
#X obj 1112 376 + 70;
#X text 795 306 C#;
#X text 876 306 D#;
#X text 954 306 F#;
#X text 1034 304 G#;
#X text 1110 303 A#;
#X text 712 311 C1;
#X obj 240 333 unpack 0 1;
#X obj 240 357 select 0;
#X msg 244 526 0 500;
#X text 81 369 Volume;
#X text 1205 338 <-- Teclas;
#X text 335 528 <-- Tempo das notas;
#X obj 131 245 route /volume /c /d /e /f /g /a /b /c1 /c# /d# /f# /g# /a#;
#X text 130 166 Piano - Vitor Silva Reis;
#X connect 0 0 1 0;
#X connect 1 0 68 0;
#X connect 2 0 14 0;
#X connect 4 0 5 0;
#X connect 5 1 6 0;
#X connect 6 0 7 0;
#X connect 7 0 8 0;
#X connect 7 0 12 0;
#X connect 7 0 15 0;
#X connect 8 0 9 0;
#X connect 9 0 10 0;
#X connect 10 0 14 1;
#X connect 11 0 7 0;
#X connect 12 0 13 0;
#X connect 13 0 10 1;
#X connect 14 0 3 0;
#X connect 14 0 3 1;
#X connect 15 0 64 0;
#X connect 16 0 17 0;
#X connect 17 1 28 0;
#X connect 18 0 19 0;
#X connect 19 1 29 0;
#X connect 20 0 21 0;
#X connect 21 1 30 0;
#X connect 22 0 23 0;
#X connect 23 1 31 0;
#X connect 24 0 25 0;
#X connect 25 1 32 0;
#X connect 26 0 27 0;
#X connect 27 1 33 0;
#X connect 28 0 7 0;
#X connect 29 0 7 0;
#X connect 30 0 7 0;
#X connect 31 0 7 0;
#X connect 32 0 7 0;
#X connect 33 0 7 0;
#X connect 41 0 42 0;
#X connect 42 1 51 0;
#X connect 43 0 44 0;
#X connect 44 1 52 0;
#X connect 45 0 46 0;
#X connect 46 1 53 0;
#X connect 47 0 48 0;
#X connect 48 1 54 0;
#X connect 49 0 50 0;
#X connect 50 1 55 0;
#X connect 51 0 7 0;
#X connect 52 0 7 0;
#X connect 53 0 7 0;
#X connect 54 0 7 0;
#X connect 55 0 7 0;
#X connect 62 0 63 0;
#X connect 63 1 11 0;
#X connect 64 0 13 0;
#X connect 68 0 2 0;
#X connect 68 1 4 0;
#X connect 68 2 62 0;
#X connect 68 3 16 0;
#X connect 68 4 18 0;
#X connect 68 5 20 0;
#X connect 68 6 22 0;
#X connect 68 7 24 0;
#X connect 68 8 26 0;
#X connect 68 9 41 0;
#X connect 68 10 43 0;
#X connect 68 11 45 0;
#X connect 68 12 47 0;
#X connect 68 13 49 0;
